<svg xmlns="http://www.w3.org/2000/svg" viewBox="0 0 400 120">
  <rect width="400" height="120" rx="24" fill="none"/>
  <path d="M104 20a38 38 0 0 0-35 22 38 38 0 0 0-8 50 38 38 0 0 0 52 13 38 38 0 0 0 13-13 38 38 0 0 0 4-22 38 38 0 0 0-26-29 2 2 0 0 0-.4 4 34 34 0 0 1 23 25 34 34 0 0 1-1 19 34 34 0 0 1-11 15 34 34 0 0 1-23 8 34 34 0 0 1-29-16 34 34 0 0 1 4-44 2 2 0 0 0-2.8-2.8 38 38 0 0 0 12 60 38 38 0 0 0 24 6 38 38 0 0 0 30-16 38 38 0 0 0 6-31 38 38 0 0 0-29-28A2 2 0 0 0 104 20z" fill="#22BBA4"/>
  <path d="M106 38c0-5.3 4.3-9.6 9.6-9.6h10c5.3 0 9.6 4.3 9.6 9.6v10h-8V42h-12v10h-8V38z" fill="#fff"/>
  <text x="140" y="82" font-family="Inter, sans-serif" font-size="36" fill="#1F2937" font-weight="600">ANKERCLOUD</text>
</svg>